<svg xmlns="http://www.w3.org/2000/svg" width="19" height="10.689" viewBox="0 0 19 10.689">
  <path id="Path_498" data-name="Path 498" d="M98.419,6.749a1.578,1.578,0,0,0-1.5,2.072l-1.284.816a1.98,1.98,0,0,1-2.6-.416l-1.259-1.54a1.566,1.566,0,0,0,.309-.933,1.584,1.584,0,0,0-3.167,0,1.566,1.566,0,0,0,.309.933l-1.259,1.54a1.98,1.98,0,0,1-2.595.416l-1.285-.816a1.566,1.566,0,0,0,.079-.489A1.584,1.584,0,1,0,82.445,9.91l.936,5.614a.4.4,0,0,0,.39.331h13.46a.4.4,0,0,0,.39-.331l.936-5.614a1.584,1.584,0,0,0-.139-3.161Z" transform="translate(-81 -5.166)" fill="#ffc107"/>
</svg>
