<svg xmlns="http://www.w3.org/2000/svg" width="29.546" height="29.546" viewBox="0 0 29.546 29.546">
  <path id="download" d="M12.465,0h4.617a1.382,1.382,0,0,1,1.385,1.385V11.08h5.061a1.152,1.152,0,0,1,.814,1.968l-8.777,8.783a1.118,1.118,0,0,1-1.575,0L5.2,13.048a1.152,1.152,0,0,1,.814-1.968H11.08V1.385A1.382,1.382,0,0,1,12.465,0ZM29.546,21.7v6.463a1.382,1.382,0,0,1-1.385,1.385H1.385A1.382,1.382,0,0,1,0,28.161V21.7a1.382,1.382,0,0,1,1.385-1.385H9.851l2.828,2.828a2.957,2.957,0,0,0,4.19,0L19.7,20.313h8.466A1.382,1.382,0,0,1,29.546,21.7Zm-7.156,5.078a1.154,1.154,0,1,0-1.154,1.154A1.158,1.158,0,0,0,22.391,26.776Zm3.693,0a1.154,1.154,0,1,0-1.154,1.154A1.158,1.158,0,0,0,26.084,26.776Z" fill="rgba(0,0,0,0.6)"/>
</svg>
